dataset
version=1
nRows=33
nColumns=39
inDegrees=no
endheader
time	sternoclavicular_r2	sternoclavicular_r3	unrotscap_r3	unrotscap_r2	acromioclavicular_r2	acromioclavicular_r3	acromioclavicular_r1	unrothum_r1	unrothum_r3	unrothum_r2	elv_angle	shoulder_elv	shoulder1_r2	shoulder_rot	elbow_flexion	pro_sup	deviation	flexion	cmc_abduction	cmc_flexion	mp_flexion	ip_flexion	mcp2_flexion	mcp2_abduction	pm2_flexion	md2_flexion	mcp3_flexion	mcp3_abduction	pm3_flexion	md3_flexion	mcp4_flexion	mcp4_abduction	pm4_flexion	md4_flexion	mcp5_flexion	mcp5_abduction	pm5_flexion	md5_flexion
1.905000	-0.025130	-0.274318	0.106862	0.104152	0.082327	0.109757	-0.054197	-0.024523	0.036288	0.132828	0.116913	0.027437	0.146525	0.146525	1.405245	1.283191	0.000000	0.000000	0.000000	0.000000	0.000000	0.000000	0.000000	0.000000	0.000000	0.000000	0.000000	0.000000	0.000000	0.000000	0.000000	0.000000	0.000000	0.000000	0.000000	0.000000	0.000000	0.000000
1.910000	-0.025147	-0.274262	0.106776	0.104272	0.082455	0.109733	-0.054111	-0.024338	0.036255	0.132933	0.117037	0.027437	0.146525	0.146525	1.404771	1.283275	0.000000	0.000000	0.000000	0.000000	0.000000	0.000000	0.000000	0.000000	0.000000	0.000000	0.000000	0.000000	0.000000	0.000000	0.000000	0.000000	0.000000	0.000000	0.000000	0.000000	0.000000	0.000000
1.915000	-0.025165	-0.274205	0.106688	0.104392	0.082582	0.109711	-0.054024	-0.024153	0.036223	0.133036	0.117161	0.027437	0.146525	0.146525	1.404289	1.283358	0.000000	0.000000	0.000000	0.000000	0.000000	0.000000	0.000000	0.000000	0.000000	0.000000	0.000000	0.000000	0.000000	0.000000	0.000000	0.000000	0.000000	0.000000	0.000000	0.000000	0.000000	0.000000
1.920000	-0.025183	-0.274147	0.106601	0.104512	0.082708	0.109690	-0.053936	-0.023968	0.036192	0.133138	0.117284	0.027437	0.146525	0.146525	1.403801	1.283441	0.000000	0.000000	0.000000	0.000000	0.000000	0.000000	0.000000	0.000000	0.000000	0.000000	0.000000	0.000000	0.000000	0.000000	0.000000	0.000000	0.000000	0.000000	0.000000	0.000000	0.000000	0.000000
1.925000	-0.025201	-0.274089	0.106514	0.104631	0.082833	0.109670	-0.053848	-0.023783	0.036163	0.133239	0.117408	0.027437	0.146525	0.146525	1.403306	1.283523	0.000000	0.000000	0.000000	0.000000	0.000000	0.000000	0.000000	0.000000	0.000000	0.000000	0.000000	0.000000	0.000000	0.000000	0.000000	0.000000	0.000000	0.000000	0.000000	0.000000	0.000000	0.000000
1.930000	-0.025219	-0.274030	0.106427	0.104750	0.082958	0.109652	-0.053758	-0.023599	0.036136	0.133340	0.117530	0.027437	0.146525	0.146525	1.402806	1.283605	0.000000	0.000000	0.000000	0.000000	0.000000	0.000000	0.000000	0.000000	0.000000	0.000000	0.000000	0.000000	0.000000	0.000000	0.000000	0.000000	0.000000	0.000000	0.000000	0.000000	0.000000	0.000000
1.935000	-0.025237	-0.273971	0.106340	0.104868	0.083082	0.109634	-0.053668	-0.023414	0.036111	0.133440	0.117653	0.027437	0.146525	0.146525	1.402301	1.283686	0.000000	0.000000	0.000000	0.000000	0.000000	0.000000	0.000000	0.000000	0.000000	0.000000	0.000000	0.000000	0.000000	0.000000	0.000000	0.000000	0.000000	0.000000	0.000000	0.000000	0.000000	0.000000
1.940000	-0.025255	-0.273911	0.106253	0.104986	0.083206	0.109618	-0.053578	-0.023231	0.036087	0.133540	0.117776	0.027437	0.146525	0.146525	1.401791	1.283766	0.000000	0.000000	0.000000	0.000000	0.000000	0.000000	0.000000	0.000000	0.000000	0.000000	0.000000	0.000000	0.000000	0.000000	0.000000	0.000000	0.000000	0.000000	0.000000	0.000000	0.000000	0.000000
1.945000	-0.025274	-0.273851	0.106166	0.105103	0.083329	0.109602	-0.053487	-0.023048	0.036065	0.133639	0.117898	0.027437	0.146525	0.146525	1.401277	1.283846	0.000000	0.000000	0.000000	0.000000	0.000000	0.000000	0.000000	0.000000	0.000000	0.000000	0.000000	0.000000	0.000000	0.000000	0.000000	0.000000	0.000000	0.000000	0.000000	0.000000	0.000000	0.000000
1.950000	-0.025292	-0.273790	0.106079	0.105221	0.083452	0.109587	-0.053396	-0.022866	0.036044	0.133738	0.118021	0.027437	0.146525	0.146525	1.400760	1.283925	0.000000	0.000000	0.000000	0.000000	0.000000	0.000000	0.000000	0.000000	0.000000	0.000000	0.000000	0.000000	0.000000	0.000000	0.000000	0.000000	0.000000	0.000000	0.000000	0.000000	0.000000	0.000000
1.955000	-0.025311	-0.273729	0.105993	0.105338	0.083574	0.109573	-0.053305	-0.022685	0.036025	0.133836	0.118143	0.027437	0.146525	0.146525	1.400241	1.284003	0.000000	0.000000	0.000000	0.000000	0.000000	0.000000	0.000000	0.000000	0.000000	0.000000	0.000000	0.000000	0.000000	0.000000	0.000000	0.000000	0.000000	0.000000	0.000000	0.000000	0.000000	0.000000
1.960000	-0.025329	-0.273668	0.105907	0.105455	0.083696	0.109560	-0.053214	-0.022506	0.036007	0.133935	0.118266	0.027437	0.146525	0.146525	1.399720	1.284080	0.000000	0.000000	0.000000	0.000000	0.000000	0.000000	0.000000	0.000000	0.000000	0.000000	0.000000	0.000000	0.000000	0.000000	0.000000	0.000000	0.000000	0.000000	0.000000	0.000000	0.000000	0.000000
1.965000	-0.025348	-0.273607	0.105821	0.105572	0.083818	0.109547	-0.053122	-0.022328	0.035992	0.134034	0.118389	0.027437	0.146525	0.146525	1.399197	1.284157	0.000000	0.000000	0.000000	0.000000	0.000000	0.000000	0.000000	0.000000	0.000000	0.000000	0.000000	0.000000	0.000000	0.000000	0.000000	0.000000	0.000000	0.000000	0.000000	0.000000	0.000000	0.000000
1.970000	-0.025367	-0.273546	0.105736	0.105689	0.083940	0.109534	-0.053032	-0.022151	0.035977	0.134132	0.118512	0.027437	0.146525	0.146525	1.398675	1.284233	0.000000	0.000000	0.000000	0.000000	0.000000	0.000000	0.000000	0.000000	0.000000	0.000000	0.000000	0.000000	0.000000	0.000000	0.000000	0.000000	0.000000	0.000000	0.000000	0.000000	0.000000	0.000000
1.975000	-0.025386	-0.273485	0.105652	0.105806	0.084062	0.109523	-0.052941	-0.021977	0.035964	0.134231	0.118636	0.027437	0.146525	0.146525	1.398152	1.284307	0.000000	0.000000	0.000000	0.000000	0.000000	0.000000	0.000000	0.000000	0.000000	0.000000	0.000000	0.000000	0.000000	0.000000	0.000000	0.000000	0.000000	0.000000	0.000000	0.000000	0.000000	0.000000
1.980000	-0.025405	-0.273424	0.105568	0.105924	0.084184	0.109511	-0.052851	-0.021804	0.035953	0.134331	0.118760	0.027437	0.146525	0.146525	1.397631	1.284381	0.000000	0.000000	0.000000	0.000000	0.000000	0.000000	0.000000	0.000000	0.000000	0.000000	0.000000	0.000000	0.000000	0.000000	0.000000	0.000000	0.000000	0.000000	0.000000	0.000000	0.000000	0.000000
1.985000	-0.025423	-0.273363	0.105485	0.106041	0.084307	0.109500	-0.052762	-0.021634	0.035943	0.134430	0.118884	0.027437	0.146525	0.146525	1.397112	1.284455	0.000000	0.000000	0.000000	0.000000	0.000000	0.000000	0.000000	0.000000	0.000000	0.000000	0.000000	0.000000	0.000000	0.000000	0.000000	0.000000	0.000000	0.000000	0.000000	0.000000	0.000000	0.000000
1.990000	-0.025442	-0.273303	0.105403	0.106159	0.084429	0.109489	-0.052673	-0.021465	0.035934	0.134531	0.119009	0.027437	0.146525	0.146525	1.396595	1.284527	0.000000	0.000000	0.000000	0.000000	0.000000	0.000000	0.000000	0.000000	0.000000	0.000000	0.000000	0.000000	0.000000	0.000000	0.000000	0.000000	0.000000	0.000000	0.000000	0.000000	0.000000	0.000000
1.995000	-0.025461	-0.273243	0.105321	0.106277	0.084551	0.109478	-0.052585	-0.021299	0.035927	0.134631	0.119134	0.027437	0.146525	0.146525	1.396082	1.284598	0.000000	0.000000	0.000000	0.000000	0.000000	0.000000	0.000000	0.000000	0.000000	0.000000	0.000000	0.000000	0.000000	0.000000	0.000000	0.000000	0.000000	0.000000	0.000000	0.000000	0.000000	0.000000
2.000000	-0.025480	-0.273184	0.105240	0.106395	0.084674	0.109468	-0.052499	-0.021136	0.035920	0.134733	0.119260	0.027437	0.146525	0.146525	1.395573	1.284668	0.000000	0.000000	0.000000	0.000000	0.000000	0.000000	0.000000	0.000000	0.000000	0.000000	0.000000	0.000000	0.000000	0.000000	0.000000	0.000000	0.000000	0.000000	0.000000	0.000000	0.000000	0.000000
2.005000	-0.025499	-0.273125	0.105160	0.106513	0.084797	0.109457	-0.052413	-0.020975	0.035916	0.134835	0.119386	0.027437	0.146525	0.146525	1.395069	1.284737	0.000000	0.000000	0.000000	0.000000	0.000000	0.000000	0.000000	0.000000	0.000000	0.000000	0.000000	0.000000	0.000000	0.000000	0.000000	0.000000	0.000000	0.000000	0.000000	0.000000	0.000000	0.000000
2.010000	-0.025517	-0.273067	0.105082	0.106632	0.084920	0.109446	-0.052329	-0.020817	0.035912	0.134938	0.119513	0.027437	0.146525	0.146525	1.394571	1.284805	0.000000	0.000000	0.000000	0.000000	0.000000	0.000000	0.000000	0.000000	0.000000	0.000000	0.000000	0.000000	0.000000	0.000000	0.000000	0.000000	0.000000	0.000000	0.000000	0.000000	0.000000	0.000000
2.015000	-0.025536	-0.273010	0.105004	0.106751	0.085044	0.109436	-0.052246	-0.020662	0.035909	0.135042	0.119640	0.027437	0.146525	0.146525	1.394080	1.284872	0.000000	0.000000	0.000000	0.000000	0.000000	0.000000	0.000000	0.000000	0.000000	0.000000	0.000000	0.000000	0.000000	0.000000	0.000000	0.000000	0.000000	0.000000	0.000000	0.000000	0.000000	0.000000
2.020000	-0.025555	-0.272953	0.104928	0.106871	0.085168	0.109425	-0.052164	-0.020511	0.035908	0.135146	0.119768	0.027437	0.146525	0.146525	1.393596	1.284938	0.000000	0.000000	0.000000	0.000000	0.000000	0.000000	0.000000	0.000000	0.000000	0.000000	0.000000	0.000000	0.000000	0.000000	0.000000	0.000000	0.000000	0.000000	0.000000	0.000000	0.000000	0.000000
2.025000	-0.025573	-0.272898	0.104852	0.106991	0.085293	0.109414	-0.052085	-0.020362	0.035908	0.135252	0.119896	0.027437	0.146525	0.146525	1.393121	1.285002	0.000000	0.000000	0.000000	0.000000	0.000000	0.000000	0.000000	0.000000	0.000000	0.000000	0.000000	0.000000	0.000000	0.000000	0.000000	0.000000	0.000000	0.000000	0.000000	0.000000	0.000000	0.000000
2.030000	-0.025592	-0.272844	0.104778	0.107111	0.085418	0.109402	-0.052007	-0.020217	0.035908	0.135359	0.120025	0.027437	0.146525	0.146525	1.392656	1.285066	0.000000	0.000000	0.000000	0.000000	0.000000	0.000000	0.000000	0.000000	0.000000	0.000000	0.000000	0.000000	0.000000	0.000000	0.000000	0.000000	0.000000	0.000000	0.000000	0.000000	0.000000	0.000000
2.035000	-0.025610	-0.272791	0.104706	0.107232	0.085544	0.109390	-0.051930	-0.020076	0.035910	0.135466	0.120155	0.027437	0.146525	0.146525	1.392201	1.285128	0.000000	0.000000	0.000000	0.000000	0.000000	0.000000	0.000000	0.000000	0.000000	0.000000	0.000000	0.000000	0.000000	0.000000	0.000000	0.000000	0.000000	0.000000	0.000000	0.000000	0.000000	0.000000
2.040000	-0.025628	-0.272740	0.104635	0.107353	0.085670	0.109378	-0.051857	-0.019938	0.035912	0.135575	0.120285	0.027437	0.146525	0.146525	1.391757	1.285188	0.000000	0.000000	0.000000	0.000000	0.000000	0.000000	0.000000	0.000000	0.000000	0.000000	0.000000	0.000000	0.000000	0.000000	0.000000	0.000000	0.000000	0.000000	0.000000	0.000000	0.000000	0.000000
2.045000	-0.025646	-0.272690	0.104565	0.107475	0.085797	0.109365	-0.051785	-0.019804	0.035915	0.135685	0.120416	0.027437	0.146525	0.146525	1.391325	1.285248	0.000000	0.000000	0.000000	0.000000	0.000000	0.000000	0.000000	0.000000	0.000000	0.000000	0.000000	0.000000	0.000000	0.000000	0.000000	0.000000	0.000000	0.000000	0.000000	0.000000	0.000000	0.000000
2.050000	-0.025663	-0.272642	0.104498	0.107597	0.085924	0.109352	-0.051715	-0.019674	0.035918	0.135796	0.120547	0.027437	0.146525	0.146525	1.390907	1.285306	0.000000	0.000000	0.000000	0.000000	0.000000	0.000000	0.000000	0.000000	0.000000	0.000000	0.000000	0.000000	0.000000	0.000000	0.000000	0.000000	0.000000	0.000000	0.000000	0.000000	0.000000	0.000000
2.055000	-0.025681	-0.272595	0.104432	0.107719	0.086051	0.109338	-0.051648	-0.019548	0.035923	0.135908	0.120679	0.027437	0.146525	0.146525	1.390503	1.285362	0.000000	0.000000	0.000000	0.000000	0.000000	0.000000	0.000000	0.000000	0.000000	0.000000	0.000000	0.000000	0.000000	0.000000	0.000000	0.000000	0.000000	0.000000	0.000000	0.000000	0.000000	0.000000
2.060000	-0.025698	-0.272550	0.104367	0.107842	0.086180	0.109323	-0.051584	-0.019426	0.035927	0.136022	0.120811	0.027437	0.146525	0.146525	1.390114	1.285417	0.000000	0.000000	0.000000	0.000000	0.000000	0.000000	0.000000	0.000000	0.000000	0.000000	0.000000	0.000000	0.000000	0.000000	0.000000	0.000000	0.000000	0.000000	0.000000	0.000000	0.000000	0.000000
2.065000	-0.025715	-0.272507	0.104305	0.107965	0.086308	0.109308	-0.051523	-0.019309	0.035933	0.136137	0.120943	0.027437	0.146525	0.146525	1.389742	1.285471	0.000000	0.000000	0.000000	0.000000	0.000000	0.000000	0.000000	0.000000	0.000000	0.000000	0.000000	0.000000	0.000000	0.000000	0.000000	0.000000	0.000000	0.000000	0.000000	0.000000	0.000000	0.000000
